REM DIRINDEX 1\4,1\2\5,1\2\6,1\2\7,1\3\8,1\3\9,1\3\10,1\3\11
REM DIRNAME folder01,folder02,folder03,folder04,folder05,folder06,folder07,folder08,folder09,folder10,folder11
TITLE ""
FILE "t_k_097-106.mp3" MP3
  TRACK 01 AUDIO
    TITLE "5:cjc108_0290"
    INDEX 01 00:00:00
  TRACK 02 AUDIO
    TITLE "0:"
    INDEX 01 00:01:05
  TRACK 03 AUDIO
    TITLE "6:cjc108_0291"
    INDEX 01 00:01:13
  TRACK 04 AUDIO
    TITLE "0:"
    INDEX 01 00:03:72
  TRACK 05 AUDIO
    TITLE "7:cjc108_0292"
    INDEX 01 00:04:11
  TRACK 06 AUDIO
    TITLE "0:"
    INDEX 01 00:08:48
  TRACK 07 AUDIO
    TITLE "5:cjc108_0293"
    INDEX 01 00:09:40
  TRACK 08 AUDIO
    TITLE "0:"
    INDEX 01 00:10:39
  TRACK 09 AUDIO
    TITLE "6:cjc108_0294"
    INDEX 01 00:10:63
  TRACK 10 AUDIO
    TITLE "0:"
    INDEX 01 00:13:00
  TRACK 11 AUDIO
    TITLE "7:cjc108_0295"
    INDEX 01 00:13:18
  TRACK 12 AUDIO
    TITLE "0:"
    INDEX 01 00:18:11
  TRACK 13 AUDIO
    TITLE "5:cjc108_0296"
    INDEX 01 00:19:07
  TRACK 14 AUDIO
    TITLE "0:"
    INDEX 01 00:20:08
  TRACK 15 AUDIO
    TITLE "6:cjc108_0297"
    INDEX 01 00:20:22
  TRACK 16 AUDIO
    TITLE "0:"
    INDEX 01 00:23:08
  TRACK 17 AUDIO
    TITLE "7:cjc108_0298"
    INDEX 01 00:23:26
  TRACK 18 AUDIO
    TITLE "0:"
    INDEX 01 00:28:57
  TRACK 19 AUDIO
    TITLE "5:cjc108_0299"
    INDEX 01 00:29:36
  TRACK 20 AUDIO
    TITLE "0:"
    INDEX 01 00:30:61
  TRACK 21 AUDIO
    TITLE "6:cjc108_0300"
    INDEX 01 00:30:69
  TRACK 22 AUDIO
    TITLE "0:"
    INDEX 01 00:33:24
  TRACK 23 AUDIO
    TITLE "7:cjc108_0301"
    INDEX 01 00:33:40
  TRACK 24 AUDIO
    TITLE "0:"
    INDEX 01 00:38:53
  TRACK 25 AUDIO
    TITLE "5:cjc108_0302"
    INDEX 01 00:39:43
  TRACK 26 AUDIO
    TITLE "0:"
    INDEX 01 00:40:48
  TRACK 27 AUDIO
    TITLE "6:cjc108_0303"
    INDEX 01 00:40:70
  TRACK 28 AUDIO
    TITLE "0:"
    INDEX 01 00:42:19
  TRACK 29 AUDIO
    TITLE "7:cjc108_0304"
    INDEX 01 00:42:47
  TRACK 30 AUDIO
    TITLE "0:"
    INDEX 01 00:46:39
  TRACK 31 AUDIO
    TITLE "5:cjc108_0305"
    INDEX 01 00:47:28
  TRACK 32 AUDIO
    TITLE "0:"
    INDEX 01 00:48:26
  TRACK 33 AUDIO
    TITLE "6:cjc108_0306"
    INDEX 01 00:48:42
  TRACK 34 AUDIO
    TITLE "0:"
    INDEX 01 00:49:65
  TRACK 35 AUDIO
    TITLE "7:cjc108_0307"
    INDEX 01 00:50:07
  TRACK 36 AUDIO
    TITLE "0:"
    INDEX 01 00:55:30
  TRACK 37 AUDIO
    TITLE "5:cjc108_0308"
    INDEX 01 00:56:12
  TRACK 38 AUDIO
    TITLE "0:"
    INDEX 01 00:57:15
  TRACK 39 AUDIO
    TITLE "6:cjc108_0309"
    INDEX 01 00:57:27
  TRACK 40 AUDIO
    TITLE "0:"
    INDEX 01 00:59:53
  TRACK 41 AUDIO
    TITLE "7:cjc108_0310"
    INDEX 01 00:59:67
  TRACK 42 AUDIO
    TITLE "0:"
    INDEX 01 01:07:74
  TRACK 43 AUDIO
    TITLE "5:cjc108_0311"
    INDEX 01 01:08:70
  TRACK 44 AUDIO
    TITLE "0:"
    INDEX 01 01:10:02
  TRACK 45 AUDIO
    TITLE "6:cjc108_0312"
    INDEX 01 01:10:26
  TRACK 46 AUDIO
    TITLE "0:"
    INDEX 01 01:12:36
  TRACK 47 AUDIO
    TITLE "7:cjc108_0313"
    INDEX 01 01:12:52
  TRACK 48 AUDIO
    TITLE "0:"
    INDEX 01 01:17:26
  TRACK 49 AUDIO
    TITLE "5:cjc108_0314"
    INDEX 01 01:18:07
  TRACK 50 AUDIO
    TITLE "0:"
    INDEX 01 01:19:17
  TRACK 51 AUDIO
    TITLE "6:cjc108_0315"
    INDEX 01 01:19:30
  TRACK 52 AUDIO
    TITLE "0:"
    INDEX 01 01:20:53
  TRACK 53 AUDIO
    TITLE "7:cjc108_0316"
    INDEX 01 01:20:71
  TRACK 54 AUDIO
    TITLE "0:"
    INDEX 01 01:26:38
  TRACK 55 AUDIO
    TITLE "5:cjc108_0317"
    INDEX 01 01:27:26
  TRACK 56 AUDIO
    TITLE "0:"
    INDEX 01 01:28:41
  TRACK 57 AUDIO
    TITLE "6:cjc108_0318"
    INDEX 01 01:28:71
  TRACK 58 AUDIO
    TITLE "0:"
    INDEX 01 01:31:38
  TRACK 59 AUDIO
    TITLE "7:cjc108_0319"
    INDEX 01 01:31:55
  TRACK 60 AUDIO
    TITLE "0:"
    INDEX 01 01:37:48
